<?xml version="1.0" encoding="UTF-8" ?>
<!DOCTYPE svg PUBLIC "-//W3C//DTD SVG 1.1//EN" "http://www.w3.org/Graphics/SVG/1.1/DTD/svg11.dtd">
<svg width="363pt" height="323pt" viewBox="0 0 363 323" version="1.1" xmlns="http://www.w3.org/2000/svg">
<g id="#2a2e40ff">
<path fill="#2a2e40" opacity="1.00" d=" M 361.72 0.00 L 363.00 0.00 L 363.00 12.30 C 362.45 14.14 361.93 16.02 362.02 17.96 C 362.34 23.70 360.68 29.29 360.91 35.04 C 359.74 40.31 360.35 45.75 359.28 51.03 C 358.80 54.55 359.28 58.15 358.50 61.64 C 357.68 65.59 358.37 69.68 357.52 73.63 C 356.60 77.91 357.46 82.34 356.45 86.61 C 355.66 90.58 356.39 94.67 355.48 98.62 C 354.71 102.32 355.33 106.15 354.58 109.85 C 353.62 114.50 354.29 119.28 353.62 123.97 C 353.09 123.97 352.03 123.96 351.50 123.96 C 347.96 120.63 343.82 118.07 340.07 115.00 C 331.14 108.27 322.40 101.29 313.38 94.69 C 301.62 108.22 290.55 122.32 278.85 135.90 C 258.97 159.99 238.82 183.84 218.73 207.74 C 215.29 211.32 212.63 215.63 208.79 218.82 C 208.45 218.84 207.78 218.90 207.44 218.92 C 203.09 215.14 199.57 210.48 194.96 206.98 C 191.29 204.19 188.18 200.77 184.92 197.53 C 196.40 183.80 208.08 170.25 219.30 156.31 C 242.02 129.08 264.67 101.80 287.53 74.70 C 274.25 64.04 260.07 54.57 246.51 44.28 C 248.79 43.35 251.11 42.50 253.44 41.69 C 255.49 40.91 257.52 40.07 259.53 39.16 C 259.99 39.07 260.92 38.89 261.38 38.80 C 263.42 37.94 265.45 37.07 267.46 36.14 C 267.94 36.06 268.91 35.89 269.39 35.80 C 271.44 34.93 273.49 34.06 275.52 33.15 C 275.99 33.06 276.92 32.88 277.38 32.79 C 279.39 31.95 281.39 31.10 283.41 30.28 C 286.09 29.36 288.74 28.34 291.39 27.33 C 293.12 26.68 294.81 25.95 296.49 25.19 C 296.98 25.09 297.94 24.87 298.43 24.77 C 300.39 23.87 302.39 23.06 304.41 22.31 C 306.16 21.69 307.88 20.96 309.58 20.20 C 310.02 20.09 310.90 19.87 311.34 19.76 C 313.00 19.00 314.68 18.28 316.40 17.64 C 318.41 16.90 320.41 16.09 322.42 15.32 C 324.16 14.68 325.88 13.99 327.56 13.19 C 328.01 13.08 328.89 12.88 329.33 12.77 C 331.00 11.99 332.70 11.29 334.43 10.64 C 336.46 9.88 338.47 9.06 340.45 8.16 C 340.92 8.06 341.87 7.87 342.35 7.78 C 344.01 7.00 345.69 6.28 347.41 5.63 C 349.42 4.90 351.41 4.09 353.40 3.28 C 355.08 2.67 356.74 2.01 358.39 1.31 C 359.49 0.86 360.60 0.42 361.72 0.00 Z" />
<path fill="#2a2e40" opacity="1.00" d=" M 96.55 59.27 C 103.95 57.76 111.38 55.89 118.98 55.94 C 133.97 55.08 149.26 56.12 163.64 60.72 C 164.12 60.83 165.08 61.06 165.56 61.17 C 166.57 61.57 167.58 61.95 168.60 62.32 C 169.61 62.65 170.62 62.97 171.63 63.28 C 173.28 63.94 174.94 64.58 176.60 65.23 C 181.64 67.54 186.71 69.80 191.48 72.68 C 200.69 78.04 209.50 84.34 216.75 92.20 C 224.36 99.25 230.73 107.56 236.07 116.43 C 230.85 123.38 224.45 129.37 219.33 136.39 C 215.19 129.74 211.30 122.90 206.20 116.92 C 198.19 108.42 189.90 99.96 179.54 94.32 C 175.02 91.65 170.41 89.10 165.46 87.31 C 141.39 77.46 113.63 77.48 89.55 87.30 C 63.81 97.74 42.92 118.92 32.29 144.53 C 23.21 167.33 22.24 193.45 30.76 216.56 C 30.88 217.01 31.13 217.90 31.25 218.35 C 32.03 220.02 32.72 221.73 33.32 223.47 C 34.12 225.10 34.92 226.74 35.74 228.37 C 42.96 243.10 54.36 255.33 67.16 265.41 C 61.86 271.68 56.66 278.22 51.01 284.07 C 46.25 281.34 42.73 277.03 38.41 273.72 C 30.07 265.24 22.58 255.84 16.67 245.48 C 13.95 240.65 11.61 235.63 9.26 230.62 C 8.42 228.26 7.50 225.92 6.62 223.58 C 5.80 220.93 5.09 218.25 4.28 215.60 C 3.01 210.47 1.85 205.31 1.19 200.08 C 0.98 197.20 0.85 194.31 0.00 191.54 L 0.00 173.38 C 1.61 164.01 2.54 154.46 5.63 145.40 C 5.97 144.40 6.32 143.40 6.67 142.41 C 6.98 141.40 7.31 140.40 7.64 139.40 C 10.33 132.50 13.22 125.63 17.22 119.36 C 21.43 112.35 26.09 105.59 31.57 99.52 C 36.57 92.86 43.11 87.67 49.51 82.45 C 55.47 77.90 61.72 73.71 68.35 70.20 C 70.77 69.08 73.16 67.89 75.50 66.63 C 77.12 65.90 78.78 65.30 80.43 64.66 C 82.47 63.86 84.49 63.02 86.51 62.18 C 86.98 62.07 87.93 61.85 88.41 61.74 C 91.09 60.82 93.83 60.07 96.55 59.27 Z" />
<path fill="#2a2e40" opacity="1.00" d=" M 119.03 90.71 C 126.59 88.87 134.31 90.52 141.89 91.25 C 146.45 92.28 151.11 93.03 155.52 94.66 C 156.51 94.98 157.51 95.30 158.51 95.63 C 160.19 96.25 161.85 96.91 163.48 97.65 C 167.45 99.04 171.11 101.12 174.70 103.27 C 175.97 104.05 177.24 104.82 178.49 105.62 C 180.23 106.84 181.90 108.17 183.71 109.30 C 186.44 111.93 189.81 113.81 192.33 116.68 C 196.72 120.70 199.99 125.70 203.71 130.31 C 204.66 132.00 205.71 133.64 206.75 135.28 C 208.36 138.77 210.33 142.10 211.84 145.65 C 210.09 147.64 207.87 149.27 206.73 151.73 C 198.85 160.90 191.37 170.42 183.37 179.49 C 181.49 182.71 178.01 184.68 176.53 188.16 C 172.67 188.19 171.07 183.78 168.19 181.82 C 162.11 177.25 157.08 171.52 151.65 166.23 C 149.94 167.64 148.20 169.09 147.02 171.00 C 128.64 192.95 110.56 215.21 91.80 236.82 C 87.23 242.23 82.88 247.82 77.85 252.81 C 76.51 254.12 75.96 256.70 73.98 257.08 C 70.28 254.90 67.31 251.70 63.82 249.23 C 60.14 246.54 57.88 242.50 54.80 239.23 C 52.65 236.39 50.48 233.55 48.64 230.49 C 47.60 228.84 46.58 227.17 45.65 225.46 C 44.11 222.56 42.82 219.55 41.67 216.49 C 40.91 214.85 40.26 213.17 39.65 211.47 C 34.42 195.36 33.42 177.89 37.68 161.47 C 37.97 160.14 38.27 158.82 38.63 157.51 C 38.88 156.43 39.27 155.41 39.81 154.46 C 39.90 153.94 40.06 152.91 40.14 152.40 C 40.66 151.50 41.04 150.54 41.28 149.52 C 41.53 148.96 42.04 147.85 42.30 147.29 C 43.99 143.67 45.75 140.08 47.66 136.57 C 48.46 135.12 49.38 133.73 50.27 132.33 C 54.83 125.40 60.35 119.07 66.68 113.71 C 70.95 109.21 76.18 105.71 81.56 102.67 C 85.05 100.70 88.69 99.02 92.29 97.25 C 94.00 96.60 95.73 95.96 97.38 95.15 C 97.90 95.06 98.94 94.89 99.47 94.80 C 105.70 92.47 112.40 91.20 119.03 90.71 Z" />
<path fill="#2a2e40" opacity="1.00" d=" M 243.27 198.28 C 257.28 182.17 270.60 165.43 284.95 149.64 C 285.07 207.42 284.96 265.21 285.00 323.00 L 35.43 323.00 C 37.31 319.50 40.58 317.07 42.83 313.83 C 80.07 271.41 115.64 227.51 152.53 184.78 C 156.36 188.79 160.11 192.92 164.51 196.33 C 168.52 199.38 171.56 203.46 175.42 206.67 C 183.38 212.56 189.21 220.77 197.03 226.82 C 201.41 230.17 204.69 234.71 208.98 238.14 C 212.41 235.85 214.13 231.89 217.19 229.20 C 226.00 219.00 234.68 208.67 243.27 198.28 Z" />
</g>
</svg>
